# xmcd
#
# Track frame offsets: 
#        150
#        17160
#        32535
#        55742
#        73157
#        92289
#        109305
#        129688
#        148266
#        166502
#        187625
#        206617
#        222813
#        243343
#        261500
#        279211
#        299733
#        318381
#        334176
#
# Disc length: 4709 seconds
#
# Revision: 0
# Processed by: cddbd v1.5.2PL0 Copyright (c) Steve Scherf et al.
# Submitted via: ExactAudioCopy v1.0b2
#
DISCID=1b126313
DTITLE=Joe Cocker - The Very Best
DYEAR=2011
DGENRE=Blues Rock
TTITLE0=First We Take Manhattan 
TTITLE1=Hard Knocks 
TTITLE2=Unchain My Heart (90's version) 
TTITLE3=You Haven't Done Nothin' 
TTITLE4=Unforgiven 
TTITLE5=Chain Of Fools
TTITLE6=My Father's Son
TTITLE7=Don't Give Up On Me 
TTITLE8=I Who Have Nothing 
TTITLE9=Now That the Magic Has Gone 
TTITLE10=Don't You Love Me Anymore 
TTITLE11=I Keep Forgetting 
TTITLE12=I Put A Spell On You 
TTITLE13=Sorry Seems to Be the Hardest Word 
TTITLE14=Hymn 4 My Soul 
TTITLE15=Naked Without You 
TTITLE16=Jealous Guy 
TTITLE17=Night Calls 
TTITLE18=On My Way Home
EXTD=
EXTT0=
EXTT1=
EXTT2=
EXTT3=
EXTT4=
EXTT5=
EXTT6=
EXTT7=
EXTT8=
EXTT9=
EXTT10=
EXTT11=
EXTT12=
EXTT13=
EXTT14=
EXTT15=
EXTT16=
EXTT17=
EXTT18=
PLAYORDER=
